<svg width="37" height="37" viewBox="0 0 37 37" fill="none" xmlns="http://www.w3.org/2000/svg">
<path d="M6.13114 15.17C6.19315 14.3973 6.54393 13.6763 7.11361 13.1507C7.68328 12.625 8.43007 12.3332 9.20523 12.3333H27.7946C28.5698 12.3332 29.3166 12.625 29.8863 13.1507C30.4559 13.6763 30.8067 14.3973 30.8687 15.17L32.1067 30.5866C32.1407 31.0109 32.0866 31.4376 31.9476 31.8399C31.8087 32.2422 31.5879 32.6114 31.2993 32.9242C31.0107 33.237 30.6604 33.4867 30.2706 33.6575C29.8807 33.8283 29.4598 33.9165 29.0341 33.9166H7.96573C7.5401 33.9165 7.11912 33.8283 6.72928 33.6575C6.33943 33.4867 5.98917 33.237 5.70055 32.9242C5.41192 32.6114 5.19119 32.2422 5.05224 31.8399C4.91329 31.4376 4.85913 31.0109 4.89318 30.5866L6.13114 15.17V15.17Z" stroke="white" stroke-width="3" stroke-linecap="round" stroke-linejoin="round"/>
<path d="M24.6666 16.9583V9.24998C24.6666 7.61448 24.0169 6.04596 22.8604 4.88949C21.7039 3.73301 20.1354 3.08331 18.4999 3.08331C16.8644 3.08331 15.2959 3.73301 14.1394 4.88949C12.983 6.04596 12.3333 7.61448 12.3333 9.24998V16.9583" stroke="white" stroke-width="3" stroke-linecap="round" stroke-linejoin="round"/>
</svg>
